<svg width="30" height="30" viewBox="0 0 30 30" fill="none" xmlns="http://www.w3.org/2000/svg">
<path d="M15.0016 4.32374e-08C12.3964 -0.00019773 9.83613 0.67809 7.57276 1.96808C5.30939 3.25807 3.421 5.11528 2.09352 7.35687C0.766031 9.59845 0.0452232 12.1471 0.00205953 14.7519C-0.0411042 17.3567 0.594865 19.9279 1.84735 22.2122L0.621351 26.5393C0.506981 26.9336 0.500552 27.3514 0.602735 27.749C0.704919 28.1466 0.911968 28.5095 1.20227 28.7998C1.49257 29.0901 1.85547 29.2972 2.2531 29.3993C2.65073 29.5015 3.06849 29.4951 3.46279 29.3807L7.78984 28.1547C9.79513 29.2538 12.0251 29.8799 14.3094 29.9851C16.5938 30.0903 18.8719 29.6718 20.9697 28.7617C23.0675 27.8516 24.9295 26.4739 26.4133 24.734C27.8971 22.994 28.9634 20.9378 29.5309 18.7226C30.0983 16.5074 30.1517 14.1918 29.6871 11.9528C29.2225 9.71375 28.2522 7.61058 26.8502 5.80401C25.4483 3.99745 23.6519 2.53532 21.5983 1.52938C19.5447 0.523437 17.2883 0.000316752 15.0016 4.32374e-08ZM18.4777 24.2315H18.4633C15.0956 24.2277 11.8672 22.8872 9.48728 20.5046C7.10735 18.122 5.77055 14.892 5.77055 11.5244C5.77437 10.1498 6.32312 8.83275 7.29648 7.86209C8.26984 6.89143 9.58839 6.34635 10.963 6.34635C11.3409 6.34718 11.7118 6.44761 12.0385 6.63754C12.3652 6.82746 12.636 7.10015 12.8237 7.42812L14.5112 10.3849C14.715 10.7391 14.8199 11.1414 14.8148 11.55C14.8097 11.9585 14.6949 12.3582 14.4824 12.7071L13.4583 14.4235C13.9732 15.2991 14.703 16.0289 15.5785 16.5438L17.2949 15.5197C17.6439 15.3072 18.0436 15.1924 18.4521 15.1873C18.8606 15.1822 19.263 15.2871 19.6171 15.4909L22.574 17.1784C22.9019 17.3661 23.1746 17.6369 23.3645 17.9636C23.5545 18.2902 23.6549 18.6612 23.6557 19.0391C23.6557 20.4137 23.1107 21.7322 22.14 22.7056C21.1693 23.679 19.8523 24.2277 18.4777 24.2315Z" fill="white"/>
</svg>
